<?xml version="1.0" standalone="no"?>
<!DOCTYPE svg PUBLIC "-//W3C//DTD SVG 20010904//EN"
 "http://www.w3.org/TR/2001/REC-SVG-20010904/DTD/svg10.dtd">
<svg version="1.0" xmlns="http://www.w3.org/2000/svg"
 width="512.000000pt" height="512.000000pt" viewBox="0 0 512.000000 512.000000"
 preserveAspectRatio="xMidYMid meet">
<metadata>
Created by potrace 1.16, written by Peter Selinger 2001-2019
</metadata>
<g transform="translate(0.000000,512.000000) scale(0.100000,-0.100000)"
fill="#000000" stroke="none">
<path d="M4419 4532 c-31 -11 -76 -33 -100 -50 -24 -17 -606 -593 -1294 -1281
l-1250 -1251 -490 488 c-566 564 -530 537 -705 537 -98 0 -110 -2 -175 -33
-58 -28 -92 -55 -206 -170 -178 -179 -194 -210 -194 -372 0 -190 -58 -120 838
-1017 597 -597 782 -777 817 -792 67 -30 171 -29 236 4 38 19 388 364 1605
1582 1776 1778 1614 1598 1614 1793 0 160 -16 191 -195 372 -167 169 -219 198
-358 204 -66 3 -101 0 -143 -14z"/>
</g>
</svg>
