<?xml version="1.0" standalone="no"?>
<!DOCTYPE svg PUBLIC "-//W3C//DTD SVG 20010904//EN"
 "http://www.w3.org/TR/2001/REC-SVG-20010904/DTD/svg10.dtd">
<svg version="1.0" xmlns="http://www.w3.org/2000/svg"
 width="512.000000pt" height="512.000000pt" viewBox="0 0 512.000000 512.000000"
 preserveAspectRatio="xMidYMid meet">
<metadata>
Created by potrace 1.16, written by Peter Selinger 2001-2019
</metadata>
<g transform="translate(0.000000,512.000000) scale(0.100000,-0.100000)"
fill="#000000" stroke="none">
<path d="M1269 4825 c-274 -55 -493 -257 -581 -535 l-23 -75 0 -1655 0 -1655
23 -75 c89 -282 308 -482 588 -536 111 -21 1547 -21 1658 0 155 30 274 94 391
211 84 84 131 154 172 255 49 123 53 174 53 706 l0 494 -154 0 -155 0 -3 -502
-3 -503 -24 -60 c-55 -138 -155 -235 -291 -281 -52 -18 -98 -19 -815 -19
l-760 0 -65 24 c-134 49 -232 146 -283 279 l-22 57 -3 1565 c-2 1106 0 1584 8
1629 17 97 54 167 129 241 73 73 145 112 237 129 80 15 1439 15 1520 0 155
-28 283 -137 345 -294 l24 -60 3 -502 3 -503 155 0 154 0 0 494 c0 532 -4 583
-53 706 -41 101 -88 171 -172 255 -117 117 -236 181 -391 211 -106 20 -1564
19 -1665 -1z"/>
<path d="M2120 2948 c-139 -186 -238 -327 -244 -348 -19 -71 -7 -92 240 -421
129 -173 239 -315 244 -317 9 -3 250 174 250 183 0 3 -58 83 -129 178 l-130
172 1055 3 1054 2 0 160 0 160 -1055 2 -1054 3 129 175 c72 96 130 176 130
177 0 5 -240 183 -247 183 -5 0 -114 -141 -243 -312z"/>
</g>
</svg>
