<?xml version="1.0" standalone="no"?>
<!DOCTYPE svg PUBLIC "-//W3C//DTD SVG 20010904//EN"
 "http://www.w3.org/TR/2001/REC-SVG-20010904/DTD/svg10.dtd">
<svg version="1.0" xmlns="http://www.w3.org/2000/svg"
 width="512.000000pt" height="512.000000pt" viewBox="0 0 512.000000 512.000000"
 preserveAspectRatio="xMidYMid meet">
<metadata>
Created by potrace 1.16, written by Peter Selinger 2001-2019
</metadata>
<g transform="translate(0.000000,512.000000) scale(0.100000,-0.100000)"
fill="#000000" stroke="none">
<path d="M490 5100 c-64 -30 -441 -408 -469 -470 -28 -61 -28 -159 0 -220 15
-35 223 -248 927 -952 l907 -908 -140 -142 c-77 -79 -478 -483 -891 -898 -414
-415 -760 -771 -770 -790 -28 -52 -26 -181 3 -235 31 -57 429 -450 475 -470
21 -8 63 -15 95 -15 125 0 53 -64 1043 926 l905 904 885 -886 c487 -487 903
-897 925 -912 31 -19 57 -26 113 -30 123 -8 137 1 374 237 231 230 247 254
248 361 0 122 39 78 -939 1055 l-891 890 895 895 c693 694 899 905 914 940 28
60 28 159 1 220 -29 64 -404 433 -475 466 -60 28 -130 31 -201 8 -45 -15 -126
-94 -949 -915 l-900 -899 -900 901 c-495 495 -918 912 -940 927 -57 36 -179
42 -245 12z"/>
</g>
</svg>
