<?xml version="1.0" standalone="no"?>
<!DOCTYPE svg PUBLIC "-//W3C//DTD SVG 20010904//EN"
 "http://www.w3.org/TR/2001/REC-SVG-20010904/DTD/svg10.dtd">
<svg version="1.0" xmlns="http://www.w3.org/2000/svg"
 width="512.000000pt" height="512.000000pt" viewBox="0 0 512.000000 512.000000"
 preserveAspectRatio="xMidYMid meet">
<metadata>
Created by potrace 1.16, written by Peter Selinger 2001-2019
</metadata>
<g transform="translate(0.000000,512.000000) scale(0.100000,-0.100000)"
fill="#000000" stroke="none">
<path d="M2050 5106 c-73 -21 -119 -43 -184 -90 -107 -76 -191 -209 -215 -341
-7 -38 -11 -264 -11 -647 0 -626 0 -628 48 -681 79 -88 239 -71 300 31 l27 47
5 605 c4 452 8 610 17 626 19 34 70 72 111 84 26 8 410 10 1258 8 l1220 -3 41
-27 c24 -16 49 -44 62 -70 l21 -44 0 -2044 0 -2044 -21 -44 c-13 -26 -38 -54
-62 -70 l-41 -27 -1220 -3 c-848 -2 -1232 0 -1258 8 -41 12 -92 50 -111 84 -9
16 -13 174 -17 626 l-5 605 -27 47 c-61 102 -221 119 -300 31 -48 -53 -48 -55
-48 -681 0 -382 4 -609 11 -648 14 -76 65 -185 118 -250 49 -62 154 -136 236
-166 l60 -23 1299 -3 c1167 -2 1305 -1 1355 14 187 54 329 196 385 383 14 50
16 253 16 2161 0 1908 -2 2111 -16 2161 -56 186 -197 327 -383 383 -49 14
-185 16 -1340 15 -1005 -1 -1296 -4 -1331 -13z"/>
<path d="M1015 3641 c-50 -24 -989 -963 -1004 -1004 -17 -45 -13 -124 8 -165
25 -48 967 -988 1004 -1001 45 -17 124 -13 167 9 89 45 121 157 73 255 -8 17
-151 166 -316 332 l-301 303 1534 2 c1718 3 1567 -4 1627 75 25 33 28 45 28
113 0 68 -3 80 -28 113 -60 79 91 72 -1627 75 l-1534 2 302 303 c197 199 306
315 317 339 21 52 19 121 -5 168 -43 84 -159 123 -245 81z"/>
</g>
</svg>
