<?xml version="1.0" standalone="no"?>
<!DOCTYPE svg PUBLIC "-//W3C//DTD SVG 20010904//EN"
 "http://www.w3.org/TR/2001/REC-SVG-20010904/DTD/svg10.dtd">
<svg version="1.0" xmlns="http://www.w3.org/2000/svg"
 width="512.000000pt" height="512.000000pt" viewBox="0 0 512.000000 512.000000"
 preserveAspectRatio="xMidYMid meet">
<metadata>
Created by potrace 1.16, written by Peter Selinger 2001-2019
</metadata>
<g transform="translate(0.000000,512.000000) scale(0.100000,-0.100000)"
fill="#000000" stroke="none">
<path d="M977 5104 c-475 -86 -859 -464 -956 -941 -21 -99 -21 -127 -21 -1603
0 -1476 0 -1504 21 -1603 86 -422 389 -763 800 -901 156 -52 208 -56 777 -56
l525 0 43 25 c63 37 94 95 94 175 0 80 -31 138 -93 174 l-42 25 -515 4 c-587
5 -585 5 -755 87 -172 83 -281 193 -365 365 -91 188 -85 64 -85 1705 0 1641
-6 1517 85 1705 84 172 193 281 365 365 188 91 63 85 1710 85 l1450 0 89 -23
c48 -12 127 -42 175 -67 163 -84 271 -195 351 -360 84 -173 82 -160 87 -825
l4 -585 25 -42 c36 -62 94 -93 174 -93 80 0 138 31 175 94 l25 43 0 602 c0
569 -1 609 -21 704 -97 480 -484 858 -963 942 -77 13 -281 15 -1585 14 -1244
-1 -1509 -3 -1574 -15z"/>
<path d="M1565 4301 c-205 -60 -367 -225 -420 -428 -20 -75 -19 -229 1 -306
53 -206 225 -378 430 -431 79 -20 228 -21 307 0 208 54 377 223 431 431 21 78
21 228 0 306 -54 208 -223 377 -431 431 -82 21 -240 20 -318 -3z m253 -410
c67 -34 102 -93 102 -171 0 -111 -79 -190 -190 -190 -111 0 -190 79 -190 190
0 111 77 189 188 190 33 0 67 -7 90 -19z"/>
<path d="M2773 4054 c-62 -37 -93 -95 -93 -174 0 -80 31 -138 94 -175 l43 -25
683 0 683 0 43 25 c63 37 94 95 94 175 0 80 -31 138 -94 175 l-43 25 -684 0
-684 0 -42 -26z"/>
<path d="M2773 3354 c-62 -37 -93 -95 -93 -174 0 -80 31 -138 94 -175 l43 -25
683 0 683 0 43 25 c63 37 94 95 94 175 0 80 -31 138 -94 175 l-43 25 -684 0
-684 0 -42 -26z"/>
<path d="M1473 2884 c-181 -39 -389 -160 -450 -262 -33 -54 -32 -150 2 -208
37 -63 95 -94 176 -94 69 0 62 -3 200 92 94 65 162 81 329 81 166 0 230 -16
328 -81 30 -20 73 -49 95 -64 34 -23 52 -28 106 -28 124 0 201 77 201 200 0
84 -29 132 -117 199 -118 88 -223 136 -366 166 -89 19 -416 19 -504 -1z"/>
<path d="M4202 2440 c-102 -27 -190 -72 -274 -139 -119 -95 -845 -835 -909
-926 -78 -110 -151 -251 -192 -371 -41 -119 -167 -732 -167 -813 0 -109 82
-191 191 -191 82 0 694 126 812 167 154 53 289 127 417 226 87 68 807 783 881
875 109 136 159 280 159 462 0 344 -216 626 -546 710 -103 27 -270 26 -372 0z
m318 -416 c73 -34 126 -86 161 -159 24 -50 29 -73 29 -135 0 -137 -1 -138
-466 -601 -225 -223 -432 -422 -460 -442 -67 -48 -192 -111 -271 -138 -56 -18
-385 -91 -390 -86 -6 7 71 348 93 409 29 82 79 178 132 253 19 28 218 234 441
459 463 465 464 466 601 466 59 0 87 -6 130 -26z"/>
<path d="M1073 1954 c-62 -37 -93 -95 -93 -174 0 -80 31 -138 94 -175 l43 -25
793 0 793 0 43 25 c63 37 94 95 94 175 0 80 -31 138 -94 175 l-43 25 -794 0
-794 0 -42 -26z"/>
<path d="M1073 1254 c-62 -37 -93 -95 -93 -174 0 -80 31 -138 94 -175 l43 -25
393 0 393 0 43 25 c63 37 94 95 94 175 0 80 -31 138 -94 175 l-43 25 -394 0
-394 0 -42 -26z"/>
</g>
</svg>
