<?xml version="1.0" standalone="no"?>
<!DOCTYPE svg PUBLIC "-//W3C//DTD SVG 20010904//EN"
 "http://www.w3.org/TR/2001/REC-SVG-20010904/DTD/svg10.dtd">
<svg version="1.0" xmlns="http://www.w3.org/2000/svg"
 width="512.000000pt" height="512.000000pt" viewBox="0 0 512.000000 512.000000"
 preserveAspectRatio="xMidYMid meet">

<g transform="translate(0.000000,512.000000) scale(0.100000,-0.100000)"
fill="#000000" stroke="none">
<path d="M115 5083 c-113 -59 -127 -137 -106 -588 23 -506 117 -897 312 -1305
177 -368 351 -613 649 -910 189 -189 314 -294 500 -417 498 -331 1064 -517
1650 -542 251 -10 333 11 436 113 65 66 100 136 114 231 5 39 10 271 10 518 0
246 3 447 8 447 15 0 1000 -996 1016 -1027 21 -42 21 -144 0 -186 -15 -29
-1001 -1027 -1015 -1027 -4 0 -8 60 -11 133 -4 108 -8 139 -25 172 -36 70 -94
105 -173 105 -79 0 -137 -35 -172 -104 -18 -35 -19 -55 -16 -225 3 -178 4
-189 30 -244 35 -74 121 -160 195 -195 52 -24 70 -27 163 -27 179 0 143 -28
786 617 597 600 591 592 629 743 19 76 19 214 0 290 -38 151 -32 143 -629 743
-643 645 -607 617 -786 617 -93 0 -111 -3 -163 -27 -74 -35 -160 -121 -195
-195 l-27 -58 -3 -512 -3 -513 -107 0 c-380 0 -828 115 -1217 313 -676 345
-1202 965 -1434 1691 -96 301 -121 475 -130 901 -7 361 -8 370 -60 429 -46 53
-162 73 -226 39z"/>
</g>
</svg>
