<?xml version="1.0" standalone="no"?>
<!DOCTYPE svg PUBLIC "-//W3C//DTD SVG 20010904//EN"
 "http://www.w3.org/TR/2001/REC-SVG-20010904/DTD/svg10.dtd">
<svg version="1.0" xmlns="http://www.w3.org/2000/svg"
 width="673.000000pt" height="181.000000pt" viewBox="0 0 673.000000 181.000000"
 preserveAspectRatio="xMidYMid meet">

<g transform="translate(0.000000,181.000000) scale(0.100000,-0.100000)"
fill="#000000" stroke="none">
<path d="M147 1728 c-16 -12 -17 -69 -15 -803 l3 -790 120 0 120 0 3 787 c2
705 0 788 -14 802 -20 20 -191 23 -217 4z"/>
<path d="M485 1720 c-19 -22 -22 -192 -2 -208 6 -6 30 -13 52 -17 22 -4 54
-16 71 -26 56 -34 59 -62 59 -549 0 -415 -1 -437 -20 -474 -25 -50 -61 -76
-114 -83 -26 -4 -45 -13 -52 -24 -5 -11 -8 -61 -7 -112 l3 -92 60 1 c177 4
290 85 353 254 15 40 17 102 17 550 l0 505 -37 75 c-59 122 -144 181 -289 205
-71 11 -80 11 -94 -5z"/>
<path d="M1435 1728 c-111 -37 -186 -100 -233 -197 l-37 -76 0 -525 0 -525 38
-77 c41 -84 86 -130 170 -172 29 -15 70 -27 92 -29 l40 -2 3 116 3 116 -28 18
c-33 22 -54 48 -70 90 -15 40 -18 842 -2 914 10 48 35 85 75 107 17 10 19 23
19 130 0 132 -2 135 -70 112z"/>
<path d="M1617 1733 c-4 -3 -7 -57 -7 -119 l0 -112 34 -20 c74 -44 71 -21 71
-552 0 -455 -1 -476 -20 -507 -10 -18 -24 -33 -30 -33 -5 -1 -20 -9 -33 -20
-21 -18 -23 -25 -20 -132 l3 -113 40 2 c39 3 51 7 123 42 40 20 114 94 140
142 49 88 52 129 52 627 0 471 -1 481 -38 577 -39 98 -118 170 -228 206 -62
21 -77 23 -87 12z"/>
<path d="M2237 1733 c-11 -11 -8 -40 9 -80 9 -21 20 -47 25 -58 4 -11 51 -124
103 -250 53 -127 96 -234 96 -237 0 -4 18 -45 39 -91 22 -47 47 -106 55 -131
9 -25 20 -54 25 -63 5 -10 46 -106 90 -213 44 -107 83 -196 88 -197 9 -3 28
31 58 102 9 22 20 49 25 60 4 11 27 67 50 125 23 58 48 119 56 137 11 24 14
93 14 310 0 257 -8 342 -25 288 -4 -11 -14 -38 -22 -60 -8 -22 -19 -49 -23
-60 -4 -11 -13 -33 -20 -50 -6 -16 -19 -50 -27 -75 -8 -25 -21 -58 -28 -75 -7
-16 -21 -51 -30 -77 -10 -27 -21 -48 -25 -48 -4 0 -22 39 -39 88 -18 48 -36
96 -41 107 -5 11 -28 70 -51 130 -23 61 -47 124 -54 140 -7 17 -20 50 -28 75
-38 114 -69 186 -84 198 -18 13 -224 18 -236 5z"/>
<path d="M3077 1733 c-4 -3 -7 -366 -7 -805 l0 -799 118 3 117 3 3 789 c1 574
-1 792 -9 802 -8 10 -40 14 -114 14 -56 0 -105 -3 -108 -7z"/>
<path d="M2215 1439 c-3 -8 -4 -304 -3 -659 l3 -645 123 -3 122 -3 0 380 c0
258 -4 389 -11 408 -22 54 -28 68 -53 126 -14 32 -26 60 -26 63 0 6 -14 40
-45 109 -7 17 -27 64 -43 105 -44 107 -60 137 -67 119z"/>
<path d="M3577 1413 c-4 -3 -7 -294 -7 -645 l0 -639 98 3 97 3 3 278 2 277
143 0 c78 0 148 4 155 9 9 5 12 30 10 87 l-3 79 -152 3 -153 3 0 262 c0 191
-3 266 -12 275 -13 13 -169 17 -181 5z"/>
<path d="M3846 1404 c-9 -23 -7 -147 2 -162 7 -9 43 -12 148 -10 l139 3 0 90
0 90 -141 3 c-123 2 -142 0 -148 -14z"/>
<path d="M4471 1394 c-76 -46 -121 -109 -141 -196 -18 -79 0 -214 33 -251 7
-7 18 -22 25 -32 7 -11 21 -33 31 -48 10 -15 67 -79 127 -143 60 -63 112 -124
116 -135 4 -10 12 -19 17 -19 5 0 15 -17 21 -37 7 -21 16 -42 21 -48 13 -14
11 -104 -3 -121 -7 -9 -23 -25 -35 -36 -21 -19 -23 -31 -23 -115 l0 -94 38 7
c20 4 49 15 64 25 14 11 29 19 33 19 9 0 65 56 65 65 0 4 8 19 19 33 10 15 24
58 31 96 15 78 1 183 -32 246 -10 19 -18 39 -18 43 0 12 -37 59 -82 107 -21
21 -38 40 -38 42 0 3 -40 45 -88 95 -107 111 -137 165 -137 244 1 49 5 61 33
93 30 34 32 42 32 111 l0 75 -32 0 c-18 0 -53 -12 -77 -26z"/>
<path d="M4650 1336 c0 -76 3 -88 24 -111 13 -14 27 -42 31 -63 11 -58 18 -62
111 -62 l84 0 0 53 c0 121 -116 267 -212 267 l-38 0 0 -84z"/>
<path d="M5121 1406 c-8 -9 -10 -186 -9 -642 l3 -629 95 0 95 0 5 275 5 275
150 5 150 5 3 88 3 87 -150 0 c-126 0 -150 2 -155 16 -3 9 -6 125 -6 259 0
134 -3 250 -6 259 -8 21 -165 23 -183 2z"/>
<path d="M5392 1408 c-17 -17 -16 -152 2 -167 9 -8 59 -11 152 -9 l139 3 0 90
0 90 -140 3 c-101 2 -144 -1 -153 -10z"/>
<path d="M6085 1411 c-42 -13 -91 -45 -125 -80 -33 -34 -43 -51 -69 -114 -7
-19 -11 -158 -11 -440 0 -344 3 -419 16 -452 8 -22 17 -48 21 -57 3 -10 9 -18
14 -18 5 0 9 -5 9 -11 0 -29 133 -109 182 -109 l28 0 0 100 c0 76 -3 100 -13
100 -7 0 -24 15 -38 33 l-24 32 0 380 0 380 24 33 c14 17 31 32 38 32 10 0 13
24 13 100 0 97 -1 100 -22 99 -13 -1 -32 -4 -43 -8z"/>
<path d="M6230 1336 c0 -91 5 -116 24 -116 7 0 23 -12 37 -26 l24 -26 3 -381
c2 -271 0 -389 -9 -408 -6 -16 -26 -37 -45 -48 l-34 -20 0 -91 0 -90 33 0 c43
0 123 39 164 80 17 17 44 52 60 78 l28 47 0 440 0 440 -28 47 c-16 26 -43 61
-60 78 -40 40 -124 80 -165 80 l-32 0 0 -84z"/>
<path d="M4307 443 c-11 -10 2 -103 21 -148 37 -93 114 -154 210 -169 l42 -6
0 86 0 86 -40 39 c-22 22 -40 48 -40 60 0 50 -15 59 -104 59 -45 0 -86 -3 -89
-7z"/>
<path d="M3845 308 c-3 -13 -5 -57 -3 -98 l3 -75 145 0 145 0 0 95 0 95 -142
3 c-141 3 -143 2 -148 -20z"/>
<path d="M5391 316 c-8 -9 -11 -44 -9 -98 l3 -83 153 -3 153 -3 -3 98 -3 98
-141 3 c-113 2 -144 0 -153 -12z"/>
</g>
</svg>
